# xmcd
#
# Track frame offsets: 
#        150
#        10895
#        23863
#        34650
#        46768
#        59933
#        73762
#        84163
#        102175
#        112913
#        123573
#        137983
#        153478
#        168235
#        178565
#        190120
#        204185
#        217165
#        229303
#        241920
#        255815
#        268958
#        282568
#        291805
#
# Disc length: 4010 seconds
#
# Revision: 0
# Processed by: cddbd v1.5.2PL0 Copyright (c) Steve Scherf et al.
# Submitted via: ExactAudioCopyFreeDBPlugin 1.0
#
DISCID=5c0fa818
DTITLE=Various Artist - GoldDisc 1815
DYEAR=1900
DGENRE=Classic Country
TTITLE0=Waylon Jennings - Only Daddy That'll Walk The Line
TTITLE1=Mickey Gilley - Room Full Of Roses
TTITLE2=Merle Haggard - Old Man From The Mountain
TTITLE3=Loretta Lynn - Rated "X"
TTITLE4=Ronnie Milsap - I Hate You
TTITLE5=Conway Twitty - You've Never Been This Far Before
TTITLE6=Charley Pride - Just Between You And Me
TTITLE7=Kenny Rogers and The First Edition - Something's Burning
TTITLE8=Sonny James - Empty Arms
TTITLE9=Ferlin Husky - Wings Of A Dove
TTITLE10=Dolly Parton - Mule Skinner Blues (Blues Yodel #8)
TTITLE11=Southern Pacific - Reno Bound
TTITLE12=Vern Gosdin - Yesterday's Gone
TTITLE13=Jim Reeves - Is It Really Over?
TTITLE14=Tom T. Hall - Ravishing Ruby
TTITLE15=Patty Loveless - If My Heart Had Windows
TTITLE16=Hank Snow - I'm Moving On
TTITLE17=Hank Williams - Take These Chains From My Heart
TTITLE18=Don Gibson - Just One Time
TTITLE19=Charlie Rich - Every Time You Touch Me (I Get High)
TTITLE20=The Statler Brothers - Do You Remember These?
TTITLE21=David Houston - Almost Persuaded
TTITLE22=Buck Owens - Love's Gonna Live Here
TTITLE23=Marty Robbins - Ruby Ann
EXTD=
EXTT0=
EXTT1=
EXTT2=
EXTT3=
EXTT4=
EXTT5=
EXTT6=
EXTT7=
EXTT8=
EXTT9=
EXTT10=
EXTT11=
EXTT12=
EXTT13=
EXTT14=
EXTT15=
EXTT16=
EXTT17=
EXTT18=
EXTT19=
EXTT20=
EXTT21=
EXTT22=
EXTT23=
PLAYORDER=
